<svg width="132" height="27" viewBox="0 0 132 27" fill="none" xmlns="http://www.w3.org/2000/svg">
<path d="M73.6909 5.26807C76.1454 5.26807 77.7598 5.80585 79.0199 6.74446C80.921 8.17653 82.0935 10.5029 82.0935 13.0992C82.0935 15.6954 80.921 18.0218 79.0199 19.4539C77.7598 20.3945 76.1454 20.9303 73.6909 20.9303H68.8257V5.26807H73.6909ZM77.9808 9.69723C77.1188 8.60152 75.8567 7.95095 74.0213 7.95095H71.8097V18.2434H74.0213C75.8567 18.2434 77.1168 17.5948 77.9808 16.4991C78.6895 15.6048 79.1075 14.3963 79.1075 13.0972C79.1095 11.802 78.6895 10.5935 77.9808 9.69723Z" fill="#E8E8E8" fill-opacity="0.5"/>
<path d="M99.9616 20.3261C99.9616 22.2738 99.6292 23.1741 98.9882 24.0905C98.0147 25.4562 96.2908 26.2618 94.2345 26.2618C92.1343 26.2618 90.1436 25.2769 89.0806 24.0241L90.8941 22.1227C91.4694 22.7491 92.4647 23.6897 94.2345 23.6897C95.1641 23.6897 95.9365 23.3977 96.4242 22.8176C96.8661 22.3241 97.0871 21.6534 97.0871 20.2656V20.171C96.2251 20.8417 95.2955 21.1559 94.2126 21.1559C92.62 21.1559 91.0952 20.4409 90.1436 19.321C89.3036 18.3361 88.7939 16.9946 88.7939 15.5162C88.7939 12.3157 91.139 9.85437 94.0573 9.85437C95.2736 9.85437 96.3565 10.2572 97.1986 10.9501V10.0779H99.9616V20.3261ZM97.0871 13.8827C96.4899 13.077 95.5383 12.5413 94.4335 12.5413C92.7534 12.5413 91.6685 13.9512 91.6685 15.5182C91.6685 17.2182 92.8848 18.471 94.4992 18.471C95.5821 18.471 96.5337 17.9332 97.0871 17.1276V13.8827V13.8827Z" fill="#E8E8E8" fill-opacity="0.5"/>
<path d="M103.921 5.0304C104.894 5.0304 105.681 5.7837 105.681 6.76863C105.681 7.75356 104.894 8.50686 103.921 8.50686C102.947 8.50686 102.161 7.75356 102.161 6.76863C102.161 5.7837 102.947 5.0304 103.921 5.0304ZM105.358 20.9303H102.484V10.0779H105.358V20.9303Z" fill="#E8E8E8" fill-opacity="0.5"/>
<path d="M85.4556 5.0304C86.429 5.0304 87.2153 5.7837 87.2153 6.76863C87.2153 7.75356 86.429 8.50686 85.4556 8.50686C84.4821 8.50686 83.6958 7.75356 83.6958 6.76863C83.6958 5.7837 84.4821 5.0304 85.4556 5.0304ZM86.8928 20.9303H84.0183V10.0779H86.8928V20.9303Z" fill="#E8E8E8" fill-opacity="0.5"/>
<path d="M114.183 20.9303C113.807 21.0652 112.945 21.1538 112.391 21.1538C110.667 21.1538 109.405 20.5717 108.677 19.5868C108.123 18.8476 107.88 17.8869 107.88 16.342V12.5392V10.0779V7.05664H110.755V10.0779H113.757V12.5392H110.755V16.6783C110.755 17.3491 110.864 17.7519 111.109 18.044C111.396 18.3803 111.862 18.5797 112.568 18.5797C112.988 18.5797 113.542 18.5133 113.741 18.4669L114.183 20.9303Z" fill="#E8E8E8" fill-opacity="0.5"/>
<path d="M126.346 20.9303H123.581V20.0582C122.698 20.8195 121.68 21.1539 120.595 21.1539C119.003 21.1539 117.5 20.4389 116.548 19.319C115.708 18.334 115.177 16.9906 115.177 15.5142C115.177 12.3137 117.52 9.85236 120.44 9.85236C121.656 9.85236 122.739 10.2552 123.579 10.9481V10.0759H126.344V20.9303H126.346ZM123.472 13.8827C122.875 13.077 121.923 12.5413 120.818 12.5413C119.138 12.5413 118.053 13.9512 118.053 15.5182C118.053 17.2182 119.27 18.471 120.884 18.471C121.967 18.471 122.918 17.9332 123.472 17.1296V13.8827Z" fill="#E8E8E8" fill-opacity="0.5"/>
<path d="M131.745 20.9303H128.868V5.26807H131.743L131.745 20.9303Z" fill="#E8E8E8" fill-opacity="0.5"/>
<path d="M64.3485 0.73822H0V25.4602H64.3485V0.73822Z" fill="#E8E8E8" fill-opacity="0.5"/>
<path d="M39.915 20.9303H36.1666L28.182 11.4536V20.9303H24.4355V5.26807H28.182L36.1666 14.7347V5.26807H39.915V20.9303Z" fill="#101012"/>
<path d="M52.1319 5.26807H44.3901V9.06075H46.3649V17.1396H44.3901V20.9323H52.1319C56.3999 20.9323 59.8716 17.4196 59.8716 13.1012C59.8716 8.78078 56.3999 5.26807 52.1319 5.26807ZM52.1319 17.1376H50.1133V9.05874H52.1319C54.3335 9.05874 56.1232 10.8715 56.1232 13.0972C56.1251 15.3268 54.3335 17.1376 52.1319 17.1376Z" fill="#101012"/>
<path d="M12.2187 5.26807C7.95074 5.26807 4.479 8.78078 4.479 13.0992V20.9323H8.22744V18.9342H16.212V20.9323H19.9605V13.0992C19.9585 8.78078 16.4867 5.26807 12.2187 5.26807ZM16.21 15.1395H8.22545V13.0972C8.22545 10.8695 10.0171 9.05874 12.2167 9.05874C14.4184 9.05874 16.208 10.8695 16.208 13.0972L16.21 15.1395Z" fill="#101012"/>
</svg>
