<svg width="147" height="30" viewBox="0 0 147 30" fill="none" xmlns="http://www.w3.org/2000/svg">
<g clip-path="url(#clip0_106_292)">
<path d="M25.7128 11.398H4.68457V25.4518H25.7128V11.398Z" fill="#101013"/>
<path d="M41.6126 12.6103C41.4673 12.3736 41.2835 12.1628 41.0688 11.9867C40.8435 11.8067 40.5901 11.6651 40.3188 11.5676C40.0369 11.4674 39.7399 11.4168 39.4407 11.4179C38.9462 11.4056 38.4567 11.5201 38.0189 11.7505C37.6377 11.9594 37.3126 12.2572 37.071 12.6186C36.8235 12.998 36.6445 13.4179 36.5422 13.8592C36.431 14.3306 36.3752 14.8133 36.3759 15.2976C36.3754 15.7633 36.4313 16.2273 36.5422 16.6796C36.6465 17.1104 36.8255 17.5196 37.071 17.8886C37.3138 18.2467 37.6389 18.5415 38.0189 18.7483C38.4567 18.9787 38.9462 19.0932 39.4407 19.0809C40.1991 19.0809 40.7916 18.8492 41.2185 18.3858C41.6661 17.8741 41.9397 17.2336 42.0001 16.5565H44.3947C44.3433 17.2174 44.1779 17.8644 43.9058 18.4689C43.6569 19.0171 43.3026 19.5109 42.8631 19.9224C42.4238 20.326 41.9082 20.6375 41.3465 20.8387C40.7323 21.0545 40.0851 21.1614 39.4341 21.1546C38.6353 21.1664 37.8427 21.013 37.1059 20.704C36.4409 20.4217 35.8452 19.9985 35.3598 19.4634C34.8778 18.9227 34.5076 18.292 34.2706 17.6075C34.0133 16.8689 33.885 16.0914 33.8914 15.3093C33.8841 14.5113 34.0123 13.7179 34.2706 12.9628C34.5072 12.2687 34.8773 11.6276 35.3598 11.0754C35.8424 10.5314 36.4384 10.1 37.1059 9.81151C38.4063 9.2733 39.8539 9.20624 41.1985 9.62193C41.736 9.79228 42.2388 10.0569 42.6835 10.4035C43.1245 10.7519 43.4919 11.1843 43.7645 11.6757C44.0591 12.2127 44.2418 12.8039 44.3016 13.4135H41.9003C41.8627 13.1283 41.7646 12.8545 41.6126 12.6103Z" fill="#E8E8E8" fill-opacity="0.5"/>
<path d="M45.5939 15.2262C45.606 14.7613 45.7427 14.3081 45.9897 13.9141C46.2165 13.5725 46.5193 13.2879 46.8744 13.0826C47.249 12.8652 47.6578 12.7128 48.0833 12.632C48.5279 12.5424 48.9802 12.4973 49.4337 12.4973C49.8509 12.4983 50.2676 12.5271 50.6809 12.5837C51.0808 12.6326 51.4704 12.7448 51.835 12.9163C52.1728 13.0765 52.4658 13.3175 52.6881 13.6181C52.9246 13.9699 53.0413 14.3887 53.0207 14.8121V19.061C53.0201 19.4151 53.0412 19.7688 53.0839 20.1203C53.1052 20.3855 53.1805 20.6435 53.3051 20.8786H51.0285C50.9863 20.7518 50.9524 20.6224 50.927 20.4912C50.9005 20.3582 50.8816 20.2238 50.8705 20.0887C50.5229 20.4511 50.0875 20.7175 49.6066 20.862C49.1254 21.0093 48.6249 21.0838 48.1216 21.0832C47.7537 21.0863 47.3872 21.0388 47.0323 20.9418C46.7109 20.8549 46.4101 20.7045 46.1476 20.4995C45.8934 20.2968 45.6906 20.037 45.5556 19.7412C45.4048 19.3977 45.3316 19.0252 45.3411 18.6502C45.3259 18.2537 45.4105 17.8597 45.5872 17.5045C45.7407 17.2214 45.959 16.9787 46.2241 16.796C46.4935 16.6116 46.7928 16.4754 47.1088 16.3936C47.4372 16.3039 47.7703 16.2328 48.1066 16.1807C48.4392 16.1275 48.7718 16.0859 49.1044 16.0543C49.3975 16.0282 49.6882 15.9804 49.9741 15.9113C50.1912 15.8632 50.3951 15.7678 50.5712 15.632C50.6457 15.5671 50.7033 15.4851 50.739 15.3929C50.7746 15.3007 50.7872 15.2013 50.7757 15.1031C50.7858 14.9039 50.7452 14.7053 50.6576 14.5261C50.584 14.3889 50.4749 14.2741 50.3417 14.1935C50.2015 14.1089 50.0461 14.0524 49.8843 14.0272C49.6981 14.0011 49.5103 13.9883 49.3223 13.9889C48.953 13.968 48.587 14.0678 48.2796 14.2733C48.0268 14.4629 47.8805 14.7722 47.8372 15.2212L45.5939 15.2262ZM50.7757 16.8892C50.6722 16.9783 50.5517 17.0457 50.4215 17.0871C50.2711 17.1358 50.1178 17.1752 49.9625 17.2051C49.7995 17.2362 49.6282 17.2628 49.4486 17.2849C49.2707 17.3049 49.0911 17.3315 48.9115 17.3631C48.7428 17.3952 48.5762 17.4374 48.4126 17.4895C48.2603 17.5373 48.1165 17.6091 47.9869 17.7024C47.8656 17.7899 47.7656 17.9035 47.6942 18.0349C47.6141 18.1964 47.5758 18.3754 47.5828 18.5555C47.5778 18.7284 47.616 18.8999 47.6942 19.0543C47.7626 19.1899 47.866 19.3047 47.9935 19.3869C48.1295 19.4692 48.2795 19.5255 48.4359 19.5532C48.6081 19.5848 48.7829 19.6004 48.9581 19.5998C49.3138 19.6201 49.6684 19.5437 49.9841 19.3786C50.2063 19.2523 50.3915 19.07 50.5213 18.8498C50.6328 18.6579 50.7056 18.4461 50.7358 18.2262C50.7576 18.0607 50.7704 17.8942 50.774 17.7273L50.7757 16.8892Z" fill="#E8E8E8" fill-opacity="0.5"/>
<path d="M56.7322 12.7134V14.23H56.7638C56.8694 13.9754 57.013 13.7382 57.1895 13.5266C57.3667 13.3121 57.5746 13.1249 57.8065 12.9712C58.0363 12.8192 58.2859 12.6995 58.5482 12.6153C58.8139 12.5312 59.091 12.4885 59.3697 12.4889C59.5362 12.4919 59.7014 12.5187 59.8603 12.5687V14.6574C59.7538 14.6358 59.6275 14.6175 59.4811 14.6009C59.3391 14.586 59.1965 14.5782 59.0537 14.5776C58.6951 14.5666 58.3386 14.6371 58.0111 14.7838C57.7386 14.9099 57.5024 15.1026 57.3242 15.3442C57.1446 15.5928 57.0183 15.8759 56.9534 16.1757C56.8765 16.5122 56.8391 16.8566 56.842 17.2018V20.8836H54.5986V12.7134H56.7322Z" fill="#E8E8E8" fill-opacity="0.5"/>
<path d="M68.754 9.60199V11.6874H63.3044V14.3015H68.0272V16.2206H63.3044V20.8769H60.8232V9.60199H68.754Z" fill="#E8E8E8" fill-opacity="0.5"/>
<path d="M72.1032 9.60199H69.8599V11.699H72.1032V9.60199Z" fill="#E8E8E8" fill-opacity="0.5"/>
<path d="M72.1032 12.7134H69.8599V20.882H72.1032V12.7134Z" fill="#E8E8E8" fill-opacity="0.5"/>
<path d="M75.8463 12.7134V13.8509H75.8945C76.1513 13.4032 76.5365 13.0428 77.0004 12.8165C77.4334 12.6049 77.9087 12.494 78.3906 12.4923C78.8942 12.4754 79.3961 12.5585 79.8674 12.7367C80.2241 12.8804 80.5371 13.1149 80.7753 13.4169C81.0067 13.7284 81.1663 14.0873 81.2426 14.4679C81.3348 14.9232 81.3794 15.3869 81.3757 15.8515V20.8753H79.1323V16.2689C79.1323 15.5937 79.0275 15.0915 78.818 14.7589C78.6085 14.4263 78.2326 14.26 77.6955 14.26C77.0858 14.26 76.6423 14.4418 76.3651 14.8054C76.088 15.1691 75.9522 15.7672 75.9577 16.5998V20.8819H73.7144V12.7134H75.8463Z" fill="#E8E8E8" fill-opacity="0.5"/>
<path d="M82.8292 15.2262C82.8413 14.7613 82.978 14.3081 83.225 13.9141C83.4523 13.5728 83.755 13.2883 84.1097 13.0826C84.4844 12.8652 84.8931 12.7128 85.3187 12.632C85.7632 12.5424 86.2156 12.4973 86.669 12.4973C87.0862 12.4983 87.5029 12.5271 87.9163 12.5837C88.3162 12.6326 88.7058 12.7448 89.0704 12.9163C89.4081 13.0765 89.7012 13.3175 89.9235 13.6181C90.16 13.9699 90.2766 14.3887 90.2561 14.8121V19.061C90.2554 19.4151 90.2765 19.7688 90.3192 20.1203C90.3406 20.3855 90.4158 20.6435 90.5404 20.8786H88.2638C88.2216 20.7518 88.1878 20.6224 88.1624 20.4912C88.1359 20.3582 88.117 20.2238 88.1058 20.0887C87.7583 20.4511 87.3229 20.7175 86.842 20.862C86.3607 21.0093 85.8602 21.0838 85.3569 21.0832C84.9891 21.0862 84.6226 21.0386 84.2677 20.9418C83.9462 20.8549 83.6454 20.7045 83.383 20.4995C83.1288 20.2968 82.9259 20.037 82.791 19.7412C82.6402 19.3977 82.5669 19.0252 82.5765 18.6502C82.5612 18.2537 82.6458 17.8597 82.8226 17.5045C82.9734 17.2183 83.1899 16.9721 83.4545 16.7861C83.7238 16.6016 84.0232 16.4654 84.3392 16.3836C84.6675 16.2939 85.0007 16.2229 85.337 16.1708C85.6696 16.1175 86.0022 16.0754 86.3348 16.0444C86.6278 16.0182 86.9185 15.9704 87.2045 15.9014C87.4225 15.8569 87.6281 15.7649 87.8065 15.632C87.8811 15.5671 87.9387 15.4851 87.9743 15.3929C88.01 15.3007 88.0226 15.2013 88.0111 15.1031C88.0211 14.9039 87.9805 14.7053 87.893 14.5261C87.8193 14.3889 87.7102 14.2741 87.577 14.1935C87.4368 14.1089 87.2815 14.0524 87.1197 14.0272C86.9335 14.0011 86.7456 13.9883 86.5576 13.9889C86.1884 13.968 85.8224 14.0678 85.5149 14.2733C85.2622 14.4629 85.1158 14.7722 85.0726 15.2212L82.8292 15.2262ZM88.0111 16.8892C87.9075 16.9783 87.787 17.0457 87.6568 17.0871C87.5064 17.1358 87.3531 17.1752 87.1979 17.2051C87.0349 17.2362 86.8636 17.2628 86.684 17.2849C86.5061 17.3049 86.3265 17.3315 86.1469 17.3631C85.9782 17.3952 85.8116 17.4374 85.648 17.4895C85.4956 17.5373 85.3519 17.6091 85.2222 17.7024C85.101 17.7899 85.001 17.9035 84.9296 18.0349C84.8495 18.1964 84.8112 18.3754 84.8181 18.5555C84.8131 18.7284 84.8514 18.8999 84.9296 19.0543C84.998 19.1899 85.1013 19.3047 85.2289 19.3869C85.3648 19.4692 85.5148 19.5255 85.6712 19.5532C85.8435 19.5848 86.0183 19.6004 86.1934 19.5998C86.5491 19.6201 86.9037 19.5437 87.2195 19.3786C87.4416 19.2523 87.6268 19.07 87.7566 18.8498C87.8681 18.6579 87.941 18.4461 87.9711 18.2262C87.993 18.0607 88.0058 17.8942 88.0094 17.7273L88.0111 16.8892Z" fill="#E8E8E8" fill-opacity="0.5"/>
<path d="M93.9681 12.7134V13.8509H94.0146C94.2701 13.4039 94.6535 13.0436 95.1155 12.8165C95.5486 12.605 96.0238 12.4942 96.5058 12.4922C97.0098 12.4754 97.5123 12.5585 97.9841 12.7367C98.3409 12.8804 98.6539 13.1149 98.8921 13.4168C99.1239 13.7305 99.2829 14.0918 99.3578 14.4745C99.4513 14.9296 99.4965 15.3934 99.4925 15.8581V20.8819H97.2541V16.2688C97.2541 15.5937 97.1477 15.0915 96.9381 14.7589C96.7286 14.4263 96.3528 14.26 95.8156 14.26C95.2048 14.26 94.7613 14.4418 94.4853 14.8054C94.2092 15.1691 94.0723 15.7666 94.0745 16.5981V20.8803H91.8345V12.7134H93.9681Z" fill="#E8E8E8" fill-opacity="0.5"/>
<path d="M104.594 14.1835C104.277 14.1722 103.963 14.2574 103.695 14.428C103.452 14.5909 103.25 14.807 103.103 15.0599C102.944 15.3234 102.832 15.6119 102.77 15.913C102.708 16.2172 102.676 16.527 102.675 16.8376C102.676 17.1399 102.708 17.4414 102.77 17.7373C102.828 18.029 102.932 18.3096 103.078 18.5688C103.219 18.8149 103.417 19.0236 103.655 19.1774C103.92 19.3416 104.228 19.4238 104.54 19.4135C105.077 19.4135 105.489 19.2639 105.78 18.9629C106.086 18.6288 106.276 18.2057 106.324 17.7556H108.486C108.337 18.8398 107.916 19.6663 107.222 20.2351C106.528 20.8038 105.638 21.0882 104.551 21.0882C103.979 21.0953 103.412 20.9931 102.878 20.7872C102.388 20.5956 101.943 20.302 101.574 19.9257C101.212 19.5464 100.929 19.0979 100.743 18.607C100.539 18.0698 100.437 17.4989 100.444 16.9241C100.438 16.3259 100.531 15.7308 100.72 15.163C100.891 14.6432 101.168 14.1644 101.533 13.7561C101.898 13.3571 102.346 13.0422 102.845 12.8332C103.406 12.603 104.008 12.4898 104.614 12.5006C105.087 12.4991 105.558 12.5629 106.013 12.6902C106.444 12.8094 106.851 13.0048 107.214 13.2672C107.585 13.5343 107.89 13.8832 108.104 14.2869C108.319 14.6906 108.438 15.1383 108.453 15.5954H106.257C106.106 14.6552 105.551 14.1846 104.594 14.1835Z" fill="#E8E8E8" fill-opacity="0.5"/>
<path d="M112.177 18.9229C112.51 19.2555 112.999 19.4119 113.631 19.4119C114.044 19.4235 114.451 19.3074 114.795 19.0793C115.071 18.9148 115.283 18.6615 115.395 18.3609H117.369C117.057 19.3365 116.574 20.0344 115.921 20.4545C115.21 20.8923 114.386 21.112 113.551 21.0865C112.958 21.0977 112.368 20.9961 111.813 20.7871C111.317 20.5948 110.87 20.2956 110.503 19.9107C110.136 19.5193 109.853 19.0569 109.671 18.5521C109.471 17.9948 109.372 17.4063 109.379 16.8143C109.373 16.2319 109.475 15.6534 109.68 15.1081C109.866 14.6003 110.156 14.1362 110.529 13.7449C110.903 13.3535 111.353 13.0432 111.852 12.8331C112.389 12.6064 112.967 12.4931 113.549 12.5005C114.179 12.4861 114.803 12.6241 115.367 12.903C115.869 13.1604 116.304 13.5311 116.638 13.9856C116.975 14.4504 117.22 14.9762 117.358 15.5338C117.508 16.1272 117.564 16.7406 117.524 17.3514H111.624C111.656 18.0732 111.84 18.597 112.177 18.9229ZM114.712 14.6341C114.444 14.3381 114.035 14.1918 113.488 14.1918C113.18 14.181 112.874 14.2431 112.595 14.3731C112.375 14.4809 112.181 14.6346 112.026 14.8237C111.89 14.9918 111.788 15.185 111.727 15.3925C111.673 15.5672 111.638 15.7473 111.624 15.9296H115.282C115.216 15.4532 115.018 15.0047 114.712 14.6341Z" fill="#E8E8E8" fill-opacity="0.5"/>
<path d="M122.103 12.306C122.259 11.7864 122.517 11.3031 122.862 10.8841C123.206 10.4729 123.642 10.1483 124.134 9.93625C124.691 9.70322 125.291 9.58991 125.895 9.60366C126.387 9.60104 126.875 9.68086 127.34 9.8398C127.782 9.98824 128.193 10.219 128.549 10.52C128.901 10.8196 129.184 11.191 129.381 11.6092C129.59 12.0646 129.696 12.5613 129.688 13.0626C129.701 13.5556 129.609 14.0456 129.421 14.5011C129.244 14.8935 129.003 15.2533 128.707 15.5654C128.406 15.8826 128.072 16.1659 127.709 16.4102C127.335 16.663 126.959 16.9091 126.58 17.1602C126.201 17.4113 125.832 17.6741 125.474 17.9584C125.113 18.2452 124.794 18.5811 124.526 18.9562H129.755V20.8836H121.63C121.617 20.3131 121.711 19.7452 121.906 19.209C122.084 18.7462 122.338 18.3162 122.657 17.9368C122.987 17.5502 123.36 17.2031 123.77 16.9024C124.198 16.5865 124.648 16.265 125.122 15.9379C125.362 15.7694 125.62 15.5981 125.895 15.4241C126.162 15.2558 126.413 15.0632 126.645 14.8487C126.868 14.6402 127.058 14.3998 127.21 14.1353C127.366 13.8614 127.445 13.5506 127.44 13.2356C127.455 13.0046 127.422 12.773 127.342 12.5557C127.262 12.3384 127.138 12.14 126.978 11.9734C126.819 11.8232 126.631 11.7061 126.427 11.629C126.222 11.5519 126.004 11.5164 125.785 11.5244C125.492 11.5147 125.202 11.5941 124.954 11.7522C124.727 11.9061 124.54 12.1119 124.408 12.3525C124.269 12.6094 124.17 12.8866 124.116 13.1741C124.058 13.4683 124.029 13.7673 124.029 14.0671H121.889C121.861 13.4722 121.934 12.8768 122.103 12.306Z" fill="#E8E8E8" fill-opacity="0.5"/>
<path d="M130.645 18.3226V16.2689L135.447 9.82318H137.454V16.4751H138.923V18.3243H137.454V20.8836H135.321V18.3226H130.645ZM135.274 12.6386L132.414 16.4767H135.321V12.6386H135.274Z" fill="#E8E8E8" fill-opacity="0.5"/>
<path d="M145.264 13.6148C144.812 14.3585 144.436 15.1457 144.142 15.9645C143.844 16.7877 143.612 17.6328 143.446 18.4922C143.291 19.2787 143.204 20.0771 143.185 20.8786H140.784C140.908 19.2353 141.302 17.6234 141.948 16.1075C142.592 14.5908 143.453 13.1761 144.506 11.9085H139.252V9.82318H146.804V11.7506C146.197 12.2887 145.678 12.9176 145.264 13.6148Z" fill="#E8E8E8" fill-opacity="0.5"/>
<path fill-rule="evenodd" clip-rule="evenodd" d="M14.9934 9.22251e-08C12.0266 -0.00032882 9.12632 0.879126 6.65936 2.52715C4.19241 4.17517 2.26956 6.51773 1.13399 9.2586C-0.00157912 11.9995 -0.298866 15.0155 0.279724 17.9253C0.858315 20.8352 2.2868 23.5081 4.38452 25.606C6.48224 27.704 9.15498 29.1327 12.0647 29.7117C14.9745 30.2906 17.9906 29.9936 20.7316 28.8584C23.4726 27.7231 25.8153 25.8005 27.4636 23.3337C29.1119 20.867 29.9917 17.9668 29.9917 15C29.9919 13.0302 29.6041 11.0797 28.8505 9.25987C28.0969 7.44 26.9921 5.7864 25.5994 4.3935C24.2066 3.0006 22.5532 1.89568 20.7334 1.14184C18.9136 0.387999 16.9631 8.01174e-08 14.9934 9.22251e-08ZM14.9934 25.2023C12.7285 25.1996 10.5286 24.4447 8.73922 23.0562C6.94982 21.6677 5.67222 19.7243 5.10701 17.531L7.88583 16.9706C8.38053 18.7718 9.54035 20.318 11.131 21.2971C12.7217 22.2762 14.6246 22.6151 16.4555 22.2454C18.2864 21.8758 19.9088 20.825 20.9949 19.3054C22.081 17.7859 22.55 15.9107 22.3071 14.0588L25.0843 13.4983C25.3004 14.9491 25.2012 16.4294 24.7933 17.8383C24.3854 19.2473 23.6785 20.5517 22.7207 21.6626C21.7629 22.7735 20.5768 23.6647 19.2433 24.2756C17.9097 24.8865 16.4602 25.2026 14.9934 25.2023Z" fill="#E8E8E8" fill-opacity="0.5"/>
</g>
<defs>
<clipPath id="clip0_106_292">
<rect width="146.812" height="30" fill="white"/>
</clipPath>
</defs>
</svg>
