<svg width="81" height="30" viewBox="0 0 81 30" fill="none" xmlns="http://www.w3.org/2000/svg">
<g clip-path="url(#clip0_106_311)">
<path d="M35.019 14.25L36.1151 8.65383H33.4613L32.3074 14.3077H29.0767L31.7882 0.865371H35.019L34.0382 5.76922H36.692L37.6728 0.807678H40.9036L38.2497 14.25H35.019ZM48.9805 7.3846L48.4036 10.2692C47.9997 12.2884 47.9997 13.6154 48.3459 14.25H45.4613C45.4036 13.9615 45.4036 13.5577 45.3459 13.2115C44.769 14.0192 43.8459 14.5384 42.8651 14.5961C40.8459 14.6538 39.9228 13.0961 39.9805 11.0769C40.0382 9.17306 40.7882 7.32691 42.0574 5.94229C43.1536 4.84614 44.5959 4.21152 46.1536 4.21152C47.3651 4.15383 48.5767 4.32691 49.6728 4.78845C49.3843 5.53845 49.1536 6.46152 48.9805 7.3846ZM44.4228 6.98076C43.7305 7.84614 43.269 9.69229 43.269 10.8461C43.269 11.4808 43.5574 11.8269 43.9613 11.8846C44.6536 11.9423 45.1151 11.1923 45.2305 10.5L46.0382 6.34614C45.4036 6.23076 44.769 6.46152 44.4228 6.98076ZM54.692 14.25H51.2305L50.1344 4.67306L53.2497 4.15383L53.4805 7.55768C53.5959 8.8846 53.5959 9.46152 53.5959 10.5H53.6536C53.9997 9.40383 54.4036 8.36537 54.8651 7.3846L56.192 4.3846H59.4228L54.692 14.25ZM61.3267 10.9038C61.3844 11.7115 61.9036 12.1154 62.769 12.1731C63.692 12.1731 64.6151 11.8846 65.2497 11.25L65.942 13.3846C64.8459 14.1923 63.5767 14.6538 62.2497 14.6538C60.7497 14.6538 59.6536 14.1346 58.9613 13.1538C58.442 12.3461 58.2113 11.4231 58.269 10.4423C58.2113 7.09614 60.2882 4.09614 63.519 4.09614C65.4228 4.09614 66.8651 4.90383 66.8651 6.92306C66.8651 8.82691 65.3651 10.4423 62.4805 10.3846C62.0767 10.3846 61.7305 10.3269 61.3844 10.2692C61.3267 10.4423 61.3267 10.6731 61.3267 10.9038ZM62.5382 8.24999C63.4036 8.24999 64.0959 7.78845 64.0959 6.98076C64.0959 6.74999 64.0382 6.57691 63.9228 6.40383C63.7497 6.23076 63.5767 6.17306 63.3459 6.23076C62.5382 6.23076 62.019 7.03845 61.8459 8.1346C62.0767 8.24999 62.3074 8.24999 62.5382 8.24999ZM75.3459 14.25C75.0574 13.5577 75.0574 12.2308 75.4036 10.2692L76.0382 7.15383C76.3267 5.65383 76.0382 4.09614 73.7882 4.09614C72.7497 4.09614 71.7113 4.49999 70.9036 5.19229C70.9036 4.78845 70.8459 4.44229 70.7882 4.09614L67.8459 4.67306C68.0767 5.8846 68.019 7.09614 67.7305 8.24999L66.519 14.25H69.6343L71.019 7.49999C71.3074 7.03845 71.769 6.80768 72.2882 6.80768C72.8074 6.80768 72.9228 7.26922 72.7497 8.01922L72.0574 11.7692C71.8844 12.5769 71.8267 13.4423 71.8843 14.3077L75.3459 14.25Z" fill="white" fill-opacity="0.5"/>
<path d="M22.4422 28.6154C18.923 27.2307 18.8653 21 19.8461 16.1538C20.423 13.4423 21.3461 11.5961 22.2115 10.6154C22.9038 9.80767 23.8269 9.23074 24.4615 9.34613C24.0576 8.99997 23.4807 8.88459 22.9615 9.05767C20.9999 9.34613 18.5192 12.1154 17.4807 17.8269C16.7884 22.0961 17.7115 26.0769 19.7884 27.8077C20.5384 28.3846 21.5192 28.673 22.4422 28.6154Z" fill="white" fill-opacity="0.5"/>
<path d="M63.8074 20.3077C61.7304 20.0192 59.6535 19.3846 57.6343 19.3846C55.7881 19.4423 53.9997 19.9615 52.3843 20.9423C53.7689 19.1539 55.0381 17.3077 57.3458 17.1923C59.7689 17.0769 61.615 18.8077 63.1727 19.9039C63.4612 20.0769 63.6343 20.25 63.8074 20.3077Z" fill="white" fill-opacity="0.5"/>
<path d="M34.5576 16.0384C33.6922 16.5577 33.0576 17.5384 32.5384 18.5192C32.0192 19.673 31.0961 21.9807 30.4615 23.423C28.9038 27.1153 27.173 28.5577 24.7499 29.0769C23.4807 29.25 22.2115 29.0769 21.0576 28.5577C22.0961 28.8461 23.2499 28.7307 24.2307 28.2692C26.1922 27.3461 27.4038 24.923 28.673 21.8653C29.9999 18.6923 31.5576 16.3269 33.3461 16.0961C33.7499 15.923 34.1538 15.923 34.5576 16.0384Z" fill="url(#paint0_linear_106_311)" fill-opacity="0.5"/>
<path d="M48.0576 22.9038C45.4037 22.9038 43.846 21.5769 41.7691 19.2115C40.7883 18.1154 39.0576 16.0961 37.3845 15.5769C35.8268 15.1154 33.6922 15.5769 32.7114 16.0961C33.4614 15.8077 34.3268 15.8654 35.0768 16.2115C35.8845 16.6731 36.6345 17.3077 37.3268 18C39.2883 20.3077 41.3076 22.3846 42.7499 23.25C44.423 24.2307 47.423 25.2692 49.9037 23.5384C51.173 22.8461 52.096 21.6346 52.9037 20.4231C51.346 21.9231 49.7883 22.9038 48.0576 22.9038Z" fill="url(#paint1_linear_106_311)" fill-opacity="0.5"/>
<path d="M63 19.8461C63.0577 19.9038 63.1154 19.9615 63.1731 19.9615C68.25 23.3654 71.8846 21.8654 73.6731 20.7692C72.6923 20.3654 71.3654 19.4423 70.9615 18.6346C69.8077 19.9038 68.1346 20.5961 66.4615 20.5384C65.25 20.423 64.0962 20.1923 63 19.8461Z" fill="url(#paint2_linear_106_311)" fill-opacity="0.5"/>
<path d="M13.4996 1.61536C13.3266 1.61536 13.2112 1.61536 13.0381 1.67305C11.5381 2.36536 10.3266 6.63459 10.615 11.1923C11.0189 16.8461 12.865 20.1346 15.6919 21.6923C18.2881 23.0769 20.7689 22.9615 22.4996 22.1538C24.9227 21 26.9996 18.3461 27.1727 14.25C27.2304 12.4615 26.7689 10.7307 25.9035 9.80766C24.9804 8.88459 23.5958 8.59613 22.3842 9.11536C23.0766 8.88459 23.8842 8.99997 24.4612 9.40382C25.2689 9.98074 25.615 11.1346 25.6727 12.8654C25.7304 14.5961 25.1535 18.6346 22.2112 20.1346C19.7304 21.4615 16.4419 20.1346 14.365 16.9038C12.3458 13.8461 12.115 9.86536 12.115 7.67305C12.2881 4.32689 12.865 2.07689 13.4996 1.61536Z" fill="white" fill-opacity="0.5"/>
<path d="M0.0575644 21.4038C-0.115512 22.7308 0.0575645 24.5769 0.865257 25.8462C2.0191 27.5192 3.34603 28.0385 4.73064 27.8654C3.28833 27.3462 2.53833 26.1923 2.24987 24.4615C2.07679 23.3077 2.13449 22.1538 2.36526 21C1.61526 21.4038 0.865257 21.5192 0.0575644 21.4038Z" fill="url(#paint3_linear_106_311)" fill-opacity="0.5"/>
<path d="M6.86523 27.9808C10.6729 27.4039 14.1922 21.6346 16.0383 14.4808C17.7114 7.5577 16.6729 1.03847 14.596 0.980774C14.0768 0.980774 13.5575 1.26924 12.8652 1.84616C12.9806 1.73077 13.1537 1.67308 13.3845 1.67308C14.2498 1.5577 14.6537 2.82693 14.8845 4.84616C15.1152 7.03847 14.9422 11.5385 13.2114 16.6731C11.0768 22.6731 7.61523 27.1731 5.19216 27.75C4.49985 27.9231 3.74985 27.9231 3.11523 27.6923C4.32677 28.1539 5.596 28.2692 6.86523 27.9808Z" fill="url(#paint4_linear_106_311)" fill-opacity="0.5"/>
</g>
<defs>
<linearGradient id="paint0_linear_106_311" x1="249.001" y1="22.5166" x2="632.263" y2="22.5166" gradientUnits="userSpaceOnUse">
<stop stop-color="white"/>
<stop offset="1" stop-color="white"/>
</linearGradient>
<linearGradient id="paint1_linear_106_311" x1="867.637" y1="19.9176" x2="1720.93" y2="19.9176" gradientUnits="userSpaceOnUse">
<stop stop-color="white"/>
<stop offset="1" stop-color="white"/>
</linearGradient>
<linearGradient id="paint2_linear_106_311" x1="1183.84" y1="20.3497" x2="1424.57" y2="20.3497" gradientUnits="userSpaceOnUse">
<stop stop-color="white"/>
<stop offset="1" stop-color="white"/>
</linearGradient>
<linearGradient id="paint3_linear_106_311" x1="-129.217" y1="24.4633" x2="-82.0625" y2="24.4633" gradientUnits="userSpaceOnUse">
<stop stop-color="white"/>
<stop offset="1" stop-color="white"/>
</linearGradient>
<linearGradient id="paint4_linear_106_311" x1="-283.297" y1="14.5535" x2="112.3" y2="14.5535" gradientUnits="userSpaceOnUse">
<stop stop-color="white"/>
<stop offset="1" stop-color="white"/>
</linearGradient>
<clipPath id="clip0_106_311">
<rect width="80.7692" height="30" fill="white"/>
</clipPath>
</defs>
</svg>
