<svg width="102" height="30" viewBox="0 0 102 30" fill="none" xmlns="http://www.w3.org/2000/svg">
<g clip-path="url(#clip0_106_277)">
<path fill-rule="evenodd" clip-rule="evenodd" d="M28.9282 7.31275C27.3585 5.91195 25.4462 5.20297 23.2464 5.20297C22.3566 5.20297 21.4778 5.33448 20.6377 5.59176L20.4443 5.64894L20.3503 5.46598C20.1569 5.10006 19.9579 4.75129 19.7479 4.41967C18.4601 2.40709 16.183 0 12.6015 0C7.27902 0 4.25577 4.95712 2.65847 9.11378C1.01696 13.3677 0.0331618 18.9994 0 24.231H3.91309C3.94626 19.4911 4.83057 14.4197 6.28969 10.6175C7.94225 6.32362 10.1254 4.05375 12.596 4.05375C14.0717 4.05375 15.3705 4.92853 16.4648 6.64951C16.6251 6.90109 16.7743 7.16409 16.918 7.44425L17.012 7.62721L16.8573 7.76444C16.592 7.99886 16.3322 8.25042 16.0835 8.51344C14.4143 10.263 13.0658 12.6643 12.2809 15.2659C11.5071 17.833 11.3524 20.3373 11.8498 22.3099C12.1538 23.5335 12.701 24.5226 13.4637 25.2487C14.3425 26.0835 15.4755 26.5237 16.7467 26.5237C20.0187 26.5237 21.4502 23.442 22.0139 21.6009C22.7435 19.2224 22.9314 16.175 22.55 13.0132C22.4119 11.881 22.2018 10.7662 21.931 9.70268L21.8647 9.43968L22.1189 9.3825C22.4892 9.30246 22.8651 9.25672 23.2409 9.25672C24.4955 9.25672 25.518 9.62836 26.3692 10.3831C27.1872 11.1149 27.878 12.2299 28.4197 13.7049C29.3537 16.2379 29.829 19.777 29.8512 24.231H33.7642C33.7477 19.2796 33.1784 15.2544 32.0785 12.2641C31.3103 10.1544 30.2491 8.48485 28.9282 7.31275ZM18.3882 20.4231C17.8079 22.3157 17.0231 22.4643 16.7522 22.4643C16.3819 22.4643 16.2217 22.3499 16.1166 22.2528C16.0061 22.144 15.7905 21.8754 15.6413 21.2808C15.3373 20.0629 15.3539 18.2561 15.8956 16.4551C16.3543 14.9228 17.1889 13.4877 18.0677 12.3099L18.4103 11.8468L18.5098 12.4186C18.5706 12.7788 18.6259 13.139 18.6701 13.5106C19.0128 16.4894 18.9409 18.622 18.3882 20.4231Z" fill="#E8E8E8" fill-opacity="0.5"/>
<path d="M53.5397 18.9593L57.906 5.91189H61.5427L64.0907 24.2252H60.2107L58.7793 13.3104H58.6577L54.9988 24.2252H51.97L48.3057 13.3161H48.1841L46.7526 24.2309H42.8726L45.4206 5.91761H49.0352L53.4236 18.9651H53.5397V18.9593ZM69.8387 14.8713C69.1589 15.5746 68.8218 16.4779 68.8218 17.5814C68.8218 18.685 69.1589 19.5883 69.8387 20.2915C70.5185 20.9947 71.3531 21.3436 72.3369 21.3436C73.3207 21.3436 74.1553 20.9947 74.8351 20.2915C75.5149 19.5883 75.8521 18.685 75.8521 17.5814C75.8521 16.4779 75.5149 15.5746 74.8351 14.8713C74.1553 14.168 73.3207 13.8193 72.3369 13.8193C71.3531 13.8193 70.5185 14.168 69.8387 14.8713ZM77.5267 12.5386C78.8366 13.8593 79.4888 15.5402 79.4888 17.5814C79.4888 19.6226 78.8366 21.3035 77.5267 22.6243C76.2168 23.9451 74.4869 24.6083 72.3369 24.6083C70.1869 24.6083 68.457 23.9451 67.1471 22.6243C65.8372 21.3035 65.185 19.6226 65.185 17.5814C65.185 15.5402 65.8427 13.8593 67.1471 12.5386C68.457 11.2177 70.1869 10.5545 72.3369 10.5545C74.4869 10.5545 76.2168 11.2177 77.5267 12.5386ZM85.06 10.8061V24.3282C85.06 26.0834 84.6068 27.4499 83.7004 28.4162C82.8105 29.4053 81.5669 29.9313 79.9641 29.9942L79.2346 26.7352C80.7711 26.6037 81.5393 25.7975 81.5393 24.3282V10.8061C82.0257 10.9719 82.606 11.0577 83.2858 11.0577C83.5953 11.0577 83.8938 11.0405 84.1812 11.0062C84.4852 10.9548 84.7063 10.9147 84.8334 10.8804L85.06 10.8061ZM81.8599 8.39902C81.4896 8.0331 81.3017 7.53568 81.3017 6.91817C81.3017 6.30068 81.4896 5.81469 81.8599 5.46592C82.2302 5.1 82.711 4.91132 83.2914 4.91132C83.8883 4.91132 84.3746 5.09427 84.7449 5.46592C85.1153 5.81469 85.3032 6.30068 85.3032 6.91817C85.3032 7.53568 85.1153 8.0331 84.7449 8.39902C84.3746 8.74779 83.8883 8.92504 83.2914 8.92504C82.7055 8.92504 82.2302 8.74779 81.8599 8.39902ZM91.7808 14.8713C91.101 15.5746 90.7638 16.4779 90.7638 17.5814C90.7638 18.685 91.101 19.5883 91.7808 20.2915C92.4606 20.9947 93.2952 21.3436 94.279 21.3436C95.2628 21.3436 96.0973 20.9947 96.7772 20.2915C97.457 19.5883 97.7941 18.685 97.7941 17.5814C97.7941 16.4779 97.457 15.5746 96.7772 14.8713C96.0973 14.168 95.2628 13.8193 94.279 13.8193C93.2952 13.8193 92.4606 14.168 91.7808 14.8713ZM99.4688 12.5386C100.779 13.8593 101.431 15.5402 101.431 17.5814C101.431 19.6226 100.779 21.3035 99.4688 22.6243C98.1589 23.9451 96.429 24.6083 94.279 24.6083C92.129 24.6083 90.399 23.9451 89.0891 22.6243C87.7793 21.3035 87.1271 19.6226 87.1271 17.5814C87.1271 15.5402 87.7848 13.8593 89.0891 12.5386C90.399 11.2177 92.129 10.5545 94.279 10.5545C96.429 10.5545 98.1589 11.2177 99.4688 12.5386Z" fill="#E8E8E8" fill-opacity="0.5"/>
</g>
<defs>
<clipPath id="clip0_106_277">
<rect width="102" height="30" fill="white"/>
</clipPath>
</defs>
</svg>
