<svg width="132" height="27" viewBox="0 0 132 27" fill="currentColor" xmlns="http://www.w3.org/2000/svg">
<path d="M73.6909 5.26807C76.1454 5.26807 77.7598 5.80585 79.0199 6.74446C80.921 8.17653 82.0935 10.5029 82.0935 13.0992C82.0935 15.6954 80.921 18.0218 79.0199 19.4539C77.7598 20.3945 76.1454 20.9303 73.6909 20.9303H68.8257V5.26807H73.6909ZM77.9808 9.69723C77.1188 8.60152 75.8567 7.95095 74.0213 7.95095H71.8097V18.2434H74.0213C75.8567 18.2434 77.1168 17.5948 77.9808 16.4991C78.6895 15.6048 79.1075 14.3963 79.1075 13.0972C79.1095 11.802 78.6895 10.5935 77.9808 9.69723Z" />
<path d="M99.9616 20.3262C99.9616 22.2739 99.6292 23.1742 98.9882 24.0906C98.0147 25.4563 96.2908 26.2619 94.2345 26.2619C92.1343 26.2619 90.1436 25.277 89.0806 24.0242L90.8941 22.1228C91.4694 22.7492 92.4647 23.6898 94.2345 23.6898C95.1641 23.6898 95.9365 23.3978 96.4242 22.8177C96.8661 22.3242 97.0871 21.6535 97.0871 20.2657V20.1711C96.2251 20.8418 95.2955 21.156 94.2126 21.156C92.62 21.156 91.0952 20.441 90.1436 19.3211C89.3036 18.3362 88.7939 16.9947 88.7939 15.5163C88.7939 12.3158 91.139 9.85449 94.0573 9.85449C95.2736 9.85449 96.3565 10.2573 97.1986 10.9502V10.078H99.9616V20.3262ZM97.0871 13.8828C96.4899 13.0771 95.5383 12.5414 94.4335 12.5414C92.7534 12.5414 91.6685 13.9513 91.6685 15.5183C91.6685 17.2183 92.8848 18.4711 94.4992 18.4711C95.5821 18.4711 96.5337 17.9333 97.0871 17.1277V13.8828Z" />
<path d="M103.921 5.03052C104.894 5.03052 105.681 5.78382 105.681 6.76875C105.681 7.75368 104.894 8.50698 103.921 8.50698C102.947 8.50698 102.161 7.75368 102.161 6.76875C102.161 5.78382 102.947 5.03052 103.921 5.03052ZM105.358 20.9304H102.484V10.078H105.358V20.9304Z" />
<path d="M85.4556 5.03052C86.429 5.03052 87.2153 5.78382 87.2153 6.76875C87.2153 7.75368 86.429 8.50698 85.4556 8.50698C84.4821 8.50698 83.6958 7.75368 83.6958 6.76875C83.6958 5.78382 84.4821 5.03052 85.4556 5.03052ZM86.8928 20.9304H84.0183V10.078H86.8928V20.9304Z" />
<path d="M114.183 20.9303C113.807 21.0652 112.945 21.1538 112.391 21.1538C110.667 21.1538 109.405 20.5717 108.677 19.5868C108.123 18.8476 107.88 17.8869 107.88 16.342V12.5392V10.0779V7.05664H110.755V10.0779H113.757V12.5392H110.755V16.6783C110.755 17.3491 110.864 17.7519 111.109 18.044C111.396 18.3803 111.862 18.5797 112.568 18.5797C112.988 18.5797 113.542 18.5133 113.741 18.4669L114.183 20.9303Z" />
<path d="M126.346 20.9302H123.581V20.0581C122.698 20.8194 121.68 21.1538 120.595 21.1538C119.003 21.1538 117.5 20.4388 116.548 19.3189C115.708 18.3339 115.177 16.9905 115.177 15.5141C115.177 12.3136 117.52 9.85229 120.44 9.85229C121.656 9.85229 122.739 10.2551 123.579 10.948V10.0758H126.344V20.9302H126.346ZM123.472 13.8826C122.875 13.0769 121.923 12.5412 120.818 12.5412C119.138 12.5412 118.053 13.9511 118.053 15.5181C118.053 17.2181 119.27 18.4709 120.884 18.4709C121.967 18.4709 122.918 17.9331 123.472 17.1295V13.8826Z" />
<path d="M131.745 20.9303H128.868V5.26807H131.743L131.745 20.9303Z" />
<path fill-rule="evenodd" clip-rule="evenodd" d="M0 1H64.3485V25.722H0V1ZM36.1666 20.9303H39.915V5.26807H36.1666V14.7347L28.182 5.26807H24.4355V20.9303H28.182V11.4536L36.1666 20.9303ZM52.1319 5.26807H44.3901V9.06075H46.3649V17.1396H44.3901V20.9323H52.1319C56.3999 20.9323 59.8716 17.4196 59.8716 13.1012C59.8716 8.78078 56.3999 5.26807 52.1319 5.26807ZM52.1319 17.1376H50.1133V9.05874H52.1319C54.3335 9.05874 56.1232 10.8715 56.1232 13.0972C56.1251 15.3268 54.3335 17.1376 52.1319 17.1376ZM4.479 13.0992C4.479 8.78078 7.95074 5.26807 12.2187 5.26807C16.4867 5.26807 19.9585 8.78078 19.9605 13.0992V20.9323H16.212V18.9342H8.22744V20.9323H4.479V13.0992ZM8.22545 15.1395H16.21L16.208 13.0972C16.208 10.8695 14.4184 9.05874 12.2167 9.05874C10.0171 9.05874 8.22545 10.8695 8.22545 13.0972V15.1395Z" />
</svg>
