<svg width="180" height="30" viewBox="0 0 180 30" fill="currentColor" xmlns="http://www.w3.org/2000/svg">
    <path d="M7.26928 13.3556H13.7417V22.625C13.7417 27.3088 11.3514 30 6.87082 30C2.38993 30 0 27.3092 0 22.625V7.37536C0 2.69084 2.38993 0 6.87082 0C11.3518 0 13.7417 2.69091 13.7417 7.37536V10.2659H9.36031V7.07664C9.36031 4.98418 8.46425 4.18698 6.97039 4.18698C5.47646 4.18698 4.58084 4.98418 4.58084 7.07664V22.9239C4.58084 25.0167 5.4769 25.8147 6.97039 25.8147C8.46387 25.8147 9.36031 25.0166 9.36031 22.9239V17.5417H7.26928V13.3556Z" />
    <path d="M20.4135 20.0338L14.6377 0.39917H19.4175L22.9029 13.7547L26.3879 0.39917H30.8688L24.994 20.0338V29.8008H20.4135V20.0338Z" />
    <path d="M42.4199 21.2294L45.6063 0.399179H51.9792V29.7013H47.5978V8.67185L44.4114 29.7008H40.03L36.6445 8.97019V29.7008H32.6611V0.398804H39.0341L42.4199 21.2294Z" />
    <path d="M61.5391 0.000427246C66.02 0.000427246 68.3108 2.69127 68.3108 7.37579V8.27259H63.9286V7.07657C63.9286 4.98411 63.1321 4.1869 61.6382 4.1869C60.1447 4.1869 59.3482 4.98411 59.3482 7.07657C59.3482 13.1563 68.3105 14.2528 68.3105 22.6249C68.3105 27.3087 65.9201 29.9999 61.4392 29.9999C56.9583 29.9999 54.5684 27.3091 54.5684 22.6249V20.8305H58.9498V22.9237C58.9498 25.0162 59.8462 25.8143 61.3401 25.8143C62.834 25.8143 63.7296 25.0162 63.7296 22.9237C63.7296 16.844 54.7677 15.7471 54.7677 7.37529C54.7677 2.69127 57.0577 0.000427246 61.5391 0.000427246Z" />
    <path d="M75.5795 29.7012H70.9995V0.39917H75.5795V12.9572H80.8574V0.39917H85.5378V29.7012H80.8574V17.1433H75.5795V29.7012Z" />
    <path d="M103.76 29.7012H99.0796L98.2831 24.4186H92.6073L91.8108 29.7012H87.6284L92.3084 0.39917H99.0793L103.76 29.7012ZM93.3038 20.4322H97.7852L95.5943 5.58136L93.3038 20.4322Z" />
    <path d="M115.51 29.7013C115.212 28.9032 115.112 28.5056 115.112 26.1139V21.529C115.112 18.8381 114.215 17.8421 112.125 17.8421H110.532V29.802H105.952V0.400085H112.921C117.701 0.400085 119.792 2.59257 119.792 7.17787V9.46952C119.792 12.4597 118.796 14.4528 116.805 15.4501C119.095 16.4465 119.891 18.6402 119.891 21.7298V26.2143C119.891 27.61 119.891 28.7059 120.389 29.802H115.51L115.51 29.7013H115.51ZM110.531 4.58493V13.5548H112.324C114.016 13.5548 115.112 12.7571 115.112 10.4651V7.57463C115.112 5.48142 114.414 4.58449 112.723 4.58449L110.531 4.58512V4.58493Z" />
    <path d="M128.755 18.04L127.36 20.731V29.7008H122.78V0.398376H127.36V13.1555L133.435 0.398376H138.016L131.642 13.4547L138.016 29.7008H133.236L128.755 18.04Z" />
    <path d="M141.003 0.49884C153.749 0.49884 166.496 0.49884 179.241 0.49884C179.241 0.49884 161.715 20.0338 152.853 29.7013C152.853 29.7013 153.55 28.2072 153.949 27.6088C153.55 27.6088 153.151 26.0144 152.654 25.2159C152.156 25.5155 151.658 25.7147 151.16 25.9139C150.663 26.2131 150.364 26.1139 150.065 25.5167C149.866 25.0179 149.667 24.4198 149.367 23.9219C148.87 24.1211 147.674 24.8196 147.475 24.8196L141.301 22.2275C141.401 22.2275 144.388 22.1287 145.682 22.2275L147.674 23.9227C148.172 23.4251 148.57 22.6274 148.969 22.2275H150.064C150.462 22.6266 150.861 23.3243 151.259 23.8223C151.756 23.3242 152.354 22.7262 152.753 22.3278H153.549C153.948 22.7262 154.445 23.3242 154.844 23.7226C154.844 23.7226 154.944 23.7226 155.042 23.8223C155.042 23.8223 155.84 22.9254 156.138 22.527H157.034C157.034 22.527 168.286 5.58293 168.386 5.38412C159.325 3.6881 141.003 0.49884 141.003 0.49884Z" />
    <path d="M152.156 10.5651L145.881 7.0766C149.565 7.9734 153.35 8.87064 157.034 9.66829L152.156 10.5651Z"/>
</svg>
