<svg width="81" height="30"  xmlns="http://www.w3.org/2000/svg" version="1.1" viewBox="0 0 140 52" fill="currentColor">
    <path d="M60.7,24.7l1.9-9.7H58l-2,9.8h-5.6l4.7-23.3h5.6L59,10h4.6l1.7-8.6h5.6l-4.6,23.3L60.7,24.7     L60.7,24.7L60.7,24.7z M84.9,12.8l-1,5c-0.7,3.5-0.7,5.8-0.1,6.9h-5c-0.1-0.5-0.1-1.2-0.2-1.8c-1,1.4-2.6,2.3-4.3,2.4     c-3.5,0.1-5.1-2.6-5-6.1c0.1-3.3,1.4-6.5,3.6-8.9c1.9-1.9,4.4-3,7.1-3c2.1-0.1,4.2,0.2,6.1,1C85.6,9.6,85.2,11.2,84.9,12.8     L84.9,12.8z M77,12.1c-1.2,1.5-2,4.7-2,6.7c0,1.1,0.5,1.7,1.2,1.8c1.2,0.1,2-1.2,2.2-2.4l1.4-7.2C78.7,10.8,77.6,11.2,77,12.1     L77,12.1z M94.8,24.7h-6L86.9,8.1l5.4-0.9l0.4,5.9c0.2,2.3,0.2,3.3,0.2,5.1h0.1c0.6-1.9,1.3-3.7,2.1-5.4l2.3-5.2h5.6L94.8,24.7z      M106.3,18.9c0.1,1.4,1,2.1,2.5,2.2c1.6,0,3.2-0.5,4.3-1.6l1.2,3.7c-1.9,1.4-4.1,2.2-6.4,2.2c-2.6,0-4.5-0.9-5.7-2.6     c-0.9-1.4-1.3-3-1.2-4.7c-0.1-5.8,3.5-11,9.1-11c3.3,0,5.8,1.4,5.8,4.9c0,3.3-2.6,6.1-7.6,6c-0.7,0-1.3-0.1-1.9-0.2     C106.3,18.1,106.3,18.5,106.3,18.9L106.3,18.9z M108.4,14.3c1.5,0,2.7-0.8,2.7-2.2c0-0.4-0.1-0.7-0.3-1c-0.3-0.3-0.6-0.4-1-0.3     c-1.4,0-2.3,1.4-2.6,3.3C107.6,14.3,108,14.3,108.4,14.3L108.4,14.3z M130.6,24.7c-0.5-1.2-0.5-3.5,0.1-6.9l1.1-5.4     c0.5-2.6,0-5.3-3.9-5.3c-1.8,0-3.6,0.7-5,1.9c0-0.7-0.1-1.3-0.2-1.9l-5.1,1c0.4,2.1,0.3,4.2-0.2,6.2l-2.1,10.4h5.4l2.4-11.7     c0.5-0.8,1.3-1.2,2.2-1.2c0.9,0,1.1,0.8,0.8,2.1l-1.2,6.5c-0.3,1.4-0.4,2.9-0.3,4.4L130.6,24.7z"/>
    <path d="M38.9,49.6c-6.1-2.4-6.2-13.2-4.5-21.6c1-4.7,2.6-7.9,4.1-9.6c1.2-1.4,2.8-2.4,3.9-2.2     c-0.7-0.6-1.7-0.8-2.6-0.5c-3.4,0.5-7.7,5.3-9.5,15.2c-1.2,7.4,0.4,14.3,4,17.3C35.6,49.2,37.3,49.7,38.9,49.6L38.9,49.6z"/>
    <path d="M110.6,35.2c-3.6-0.5-7.2-1.6-10.7-1.6c-3.2,0.1-6.3,1-9.1,2.7c2.4-3.1,4.6-6.3,8.6-6.5     c4.2-0.2,7.4,2.8,10.1,4.7C110,34.8,110.3,35.1,110.6,35.2L110.6,35.2z"/>
    <path d="M59.9,27.8c-1.5,0.9-2.6,2.6-3.5,4.3c-0.9,2-2.5,6-3.6,8.5c-2.7,6.4-5.7,8.9-9.9,9.8     c-2.2,0.3-4.4,0-6.4-0.9c1.8,0.5,3.8,0.3,5.5-0.5c3.4-1.6,5.5-5.8,7.7-11.1c2.3-5.5,5-9.6,8.1-10C58.5,27.6,59.2,27.6,59.9,27.8     L59.9,27.8z"/>
    <path d="M83.3,39.7c-4.6,0-7.3-2.3-10.9-6.4c-1.7-1.9-4.7-5.4-7.6-6.3c-2.7-0.8-6.4,0-8.1,0.9     c1.3-0.5,2.8-0.4,4.1,0.2c1.4,0.8,2.7,1.9,3.9,3.1c3.4,4,6.9,7.6,9.4,9.1c2.9,1.7,8.1,3.5,12.4,0.5c2.2-1.2,3.8-3.3,5.2-5.4     C89,38,86.3,39.7,83.3,39.7z"/>
    <path d="M109.2,34.4c0.1,0.1,0.2,0.2,0.3,0.2c8.8,5.9,15.1,3.3,18.2,1.4c-1.7-0.7-4-2.3-4.7-3.7     c-2,2.2-4.9,3.4-7.8,3.3C113.1,35.4,111.1,35,109.2,34.4L109.2,34.4z"/>
    <path d="M23.4,2.8c-0.3,0-0.5,0-0.8,0.1c-2.6,1.2-4.7,8.6-4.2,16.5c0.7,9.8,3.9,15.5,8.8,18.2     C31.7,40,36,39.8,39,38.4c4.2-2,7.8-6.6,8.1-13.7c0.1-3.1-0.7-6.1-2.2-7.7c-1.6-1.6-4-2.1-6.1-1.2c1.2-0.4,2.6-0.2,3.6,0.5     c1.4,1,2,3,2.1,6c0.1,3-0.9,10-6,12.6c-4.3,2.3-10,0-13.6-5.6C21.4,24,21,17.1,21,13.3C21.3,7.5,22.3,3.6,23.4,2.8L23.4,2.8z"/>
    <path d="M0.1,37.1c-0.3,2.3,0,5.5,1.4,7.7c2,2.9,4.3,3.8,6.7,3.5c-2.5-0.9-3.8-2.9-4.3-5.9     c-0.3-2-0.2-4,0.2-6C2.8,37.1,1.5,37.3,0.1,37.1L0.1,37.1z"/>
    <path d="M11.9,48.5c6.6-1,12.7-11,15.9-23.4c2.9-12,1.1-23.3-2.5-23.4c-0.9,0-1.8,0.5-3,1.5     c0.2-0.2,0.5-0.3,0.9-0.3c1.5-0.2,2.2,2,2.6,5.5c0.4,3.8,0.1,11.6-2.9,20.5C19.2,39.3,13.2,47.1,9,48.1c-1.2,0.3-2.5,0.3-3.6-0.1     C7.5,48.8,9.7,49,11.9,48.5L11.9,48.5z"/>
</svg>