<svg width="116" height="30" viewBox="0 0 116 30" fill="currentColor" xmlns="http://www.w3.org/2000/svg">
    <path d="M114.367 0.101078C113.872 -0.104311 113.301 0.00910964 112.921 0.388567L93.1233 20.1865L85.9163 11.7449C85.5555 11.3226 84.9694 11.1689 84.4486 11.3619C83.9273 11.5541 83.5811 12.0508 83.5811 12.6063V28.294C83.5811 29.0266 84.175 29.6205 84.9075 29.6205H98.301C98.6591 29.6205 98.9922 29.474 99.2367 29.2297L99.239 29.2319L114.797 13.6738C115.046 13.425 115.186 13.0876 115.186 12.7359V1.3265C115.186 0.789983 114.863 0.306467 114.367 0.101078H114.367ZM86.234 26.9675V16.2029L95.4245 26.9675H86.234ZM112.533 12.1864L98.3779 26.3412L94.8512 22.2103L112.533 4.52883V12.1864Z" />
    <path d="M2.54309 28.7474C1.31972 27.9123 0.471988 26.8033 0 25.4199L0.0505249 25.344C0.522653 25.2767 1.03749 25.108 1.59416 24.8379C2.15087 24.5682 2.61462 24.2729 2.98583 23.9522L3.06175 23.9776C3.26424 24.8213 3.72375 25.5337 4.44094 26.1158C5.1577 26.6977 6.03071 26.9888 7.05994 26.9888C7.97096 26.9888 8.69214 26.761 9.22343 26.3055C9.75485 25.85 10.0205 25.2514 10.0205 24.5089C10.0205 23.885 9.80555 23.3955 9.37528 23.0413C8.94516 22.6869 8.29992 22.392 7.43954 22.1556L5.81995 21.7507C4.20051 21.3458 2.98156 20.7386 2.16346 19.9287C1.34497 19.119 0.936272 18.0479 0.936272 16.7151C0.936272 15.7536 1.19328 14.8766 1.70795 14.0835C2.22237 13.2906 2.9309 12.6664 3.83357 12.2109C4.73582 11.7554 5.73541 11.5276 6.83217 11.5276C8.26584 11.5276 9.51007 11.8653 10.5646 12.5398C11.6187 13.2147 12.3652 14.0921 12.8041 15.1715L12.7787 15.2474C12.3063 15.315 11.8046 15.4711 11.2731 15.7155C10.7418 15.9603 10.3072 16.2343 9.96997 16.538L9.89406 16.5126C9.62403 15.8717 9.21915 15.3573 8.67935 14.9691C8.13927 14.5811 7.4814 14.387 6.70573 14.387C5.94653 14.387 5.34316 14.5811 4.89642 14.9691C4.44915 15.3574 4.22576 15.8547 4.22576 16.4621C4.22576 17.4742 5.06087 18.2081 6.73098 18.6635L8.27448 19.0685C9.92768 19.4904 11.1845 20.1059 12.0449 20.9157C12.9053 21.7254 13.3354 22.8728 13.3354 24.357C13.3354 25.4033 13.0698 26.3562 12.5383 27.2165C12.007 28.0768 11.2561 28.7561 10.2863 29.2535C9.3159 29.7508 8.20691 30 6.95869 30C5.23795 30 3.76595 29.5825 2.543 28.7474L2.54309 28.7474Z" />
    <path d="M17.6368 29.1396C16.6414 28.5663 15.8529 27.7819 15.271 26.7863C14.6889 25.7911 14.3979 24.6947 14.3979 23.4968C14.3979 22.2988 14.6846 21.2027 15.2582 20.2071C15.8315 19.2119 16.6203 18.4274 17.6242 17.8537C18.6277 17.2804 19.7371 16.9933 20.9517 16.9933C22.1663 16.9933 23.2711 17.2804 24.2666 17.8537C25.2619 18.4274 26.0507 19.2119 26.6326 20.2071C27.2147 21.2027 27.5056 22.2991 27.5056 23.4968C27.5056 24.6944 27.2147 25.7868 26.6326 26.7736C26.0507 27.7605 25.2618 28.5449 24.2666 29.127C23.2711 29.709 22.1664 30 20.9517 30C19.737 30 18.632 29.7129 17.6368 29.1396ZM17.9405 25.3187C18.2442 25.8754 18.6574 26.3141 19.1805 26.6344C19.7032 26.9551 20.2939 27.1152 20.9518 27.1152C21.5928 27.1152 22.1791 26.9552 22.7106 26.6344C23.2418 26.3141 23.6595 25.8754 23.963 25.3187C24.2667 24.762 24.4185 24.1546 24.4185 23.4968C24.4185 22.8389 24.2667 22.2315 23.963 21.6748C23.6595 21.118 23.2458 20.6796 22.7232 20.3589C22.2001 20.0386 21.6098 19.8781 20.9518 19.8781C20.2938 19.8781 19.7032 20.0386 19.1805 20.3589C18.6574 20.6796 18.2442 21.118 17.9405 21.6748C17.6368 22.2315 17.4851 22.8387 17.4851 23.4968C17.4851 24.1548 17.6369 24.762 17.9405 25.3187Z" />
    <path d="M28.8164 17.3477H31.8277V19.4733C32.0973 18.7648 32.5021 18.1997 33.0422 17.7778C33.5819 17.3564 34.2315 17.1452 34.9907 17.1452C35.9182 17.1452 36.6522 17.39 37.1923 17.8791V17.9549C36.9052 18.2586 36.6438 18.6508 36.4078 19.1316C36.1714 19.6124 36.0112 20.0639 35.927 20.4854L35.8764 20.5108C35.5222 20.2917 35.0749 20.1818 34.5352 20.1818C33.6073 20.1818 32.9367 20.5613 32.5236 21.3205C32.1099 22.0797 31.9036 23.0751 31.9036 24.3065V29.6204H28.8164V17.3477Z" />
    <path d="M38.0601 17.3477H39.9327V12.8182H43.0198V17.3477H45.0189V19.9793H43.0198V29.6204H39.9327V19.9793H38.0601V17.3477Z" />
    <path d="M48.3484 29.1396C47.3698 28.5663 46.6062 27.7859 46.0583 26.7989C45.5099 25.8121 45.2358 24.72 45.2358 23.522C45.2358 22.324 45.5016 21.2279 46.0329 20.2323C46.5644 19.2371 47.3065 18.4484 48.2597 17.8664C49.2126 17.2844 50.2881 16.9933 51.4861 16.9933C52.7174 16.9933 53.7972 17.2718 54.7251 17.8285C55.6527 18.3852 56.3699 19.153 56.8759 20.1312C57.3821 21.1097 57.6351 22.2061 57.6351 23.4208C57.6351 23.8762 57.6181 24.2139 57.5845 24.4329H48.2218C48.3903 25.3103 48.7911 26.0018 49.4238 26.508C50.0564 27.014 50.8196 27.267 51.7138 27.267C52.4224 27.267 53.0337 27.1026 53.5484 26.7736C54.0628 26.4447 54.455 26.0188 54.7251 25.4958L54.801 25.4705C55.1047 25.7741 55.4925 26.0485 55.965 26.2929C56.4372 26.5376 56.8843 26.6937 57.3062 26.761L57.3314 26.8115C56.7747 27.8578 56.0113 28.6505 55.0414 29.1903C54.0712 29.7299 52.945 30 51.6632 30C50.4316 30 49.3266 29.7129 48.3484 29.1396L48.3484 29.1396ZM54.6239 22.1049C54.438 21.3457 54.0672 20.7512 53.5105 20.3209C52.9538 19.8908 52.2619 19.6757 51.4355 19.6757C50.6593 19.6757 50.0014 19.8908 49.4618 20.3209C48.9217 20.7512 48.5421 21.3457 48.323 22.1049H54.6239Z" />
    <path d="M68.5919 27.5707C68.2036 28.2963 67.6217 28.8656 66.8458 29.2789C66.0698 29.6919 65.2517 29.8988 64.3913 29.8988C63.2609 29.8988 62.2531 29.6164 61.3674 29.0511C60.4818 28.486 59.7941 27.7186 59.3051 26.7484C58.8155 25.7785 58.5713 24.6947 58.5713 23.4968C58.5713 22.2989 58.8155 21.211 59.3051 20.2324C59.7941 19.2542 60.4818 18.4824 61.3674 17.917C62.2531 17.352 63.2609 17.0693 64.3913 17.0693C65.2176 17.0693 65.9981 17.2552 66.732 17.626C67.4658 17.9974 68.0435 18.5204 68.4654 19.1949V11.4012H71.5526V29.6204H68.6173L68.5919 27.5707ZM62.1139 25.2933C62.4176 25.8334 62.8308 26.2636 63.3539 26.5839C63.8765 26.9045 64.4586 27.0647 65.0999 27.0647C65.7577 27.0647 66.3481 26.9045 66.8712 26.5839C67.3939 26.2636 67.8032 25.8334 68.0985 25.2933C68.3934 24.7536 68.5414 24.1546 68.5414 23.4968C68.5414 22.5016 68.2163 21.6582 67.5671 20.9663C66.9174 20.2746 66.0951 19.9287 65.0999 19.9287C64.1047 19.9287 63.2819 20.2747 62.6327 20.9663C61.9831 21.6582 61.6585 22.5016 61.6585 23.4968C61.6585 24.1546 61.8103 24.7536 62.1139 25.2933H62.1139Z" />
</svg>
